# Blender 5.0.0
# www.blender.org
mtllib circleMeshThick.mtl
o Cylinder
v 0.000000 0.000000 -1.000000
v 0.000000 0.000000 -0.062425
v 0.195090 0.000000 -0.980785
v 0.012179 0.000000 -0.061225
v 0.382683 0.000000 -0.923880
v 0.023889 0.000000 -0.057673
v 0.555570 0.000000 -0.831470
v 0.034681 0.000000 -0.051904
v 0.707107 0.000000 -0.707107
v 0.044141 0.000000 -0.044141
v 0.831470 0.000000 -0.555570
v 0.051904 0.000000 -0.034681
v 0.923880 0.000000 -0.382683
v 0.057673 0.000000 -0.023889
v 0.980785 0.000000 -0.195090
v 0.061225 0.000000 -0.012179
v 1.000000 0.000000 0.000000
v 0.062425 0.000000 -0.000000
v 0.980785 0.000000 0.195090
v 0.061225 0.000000 0.012178
v 0.923880 0.000000 0.382683
v 0.057673 0.000000 0.023889
v 0.831470 0.000000 0.555570
v 0.051904 0.000000 0.034681
v 0.707107 0.000000 0.707107
v 0.044141 0.000000 0.044141
v 0.555570 0.000000 0.831470
v 0.034681 0.000000 0.051904
v 0.382683 0.000000 0.923880
v 0.023889 0.000000 0.057673
v 0.195090 0.000000 0.980785
v 0.012179 0.000000 0.061225
v 0.000000 0.000000 1.000000
v 0.000000 0.000000 0.062425
v -0.195090 0.000000 0.980785
v -0.012178 0.000000 0.061225
v -0.382683 0.000000 0.923880
v -0.023889 0.000000 0.057673
v -0.555570 0.000000 0.831470
v -0.034681 0.000000 0.051904
v -0.707107 0.000000 0.707107
v -0.044141 0.000000 0.044141
v -0.831470 0.000000 0.555570
v -0.051904 0.000000 0.034681
v -0.923880 0.000000 0.382683
v -0.057673 0.000000 0.023889
v -0.980785 0.000000 0.195090
v -0.061225 0.000000 0.012178
v -1.000000 0.000000 0.000000
v -0.062425 0.000000 -0.000000
v -0.980785 0.000000 -0.195090
v -0.061225 0.000000 -0.012179
v -0.923880 0.000000 -0.382683
v -0.057673 0.000000 -0.023889
v -0.831470 0.000000 -0.555570
v -0.051904 0.000000 -0.034681
v -0.707107 0.000000 -0.707107
v -0.044141 0.000000 -0.044141
v -0.555570 0.000000 -0.831470
v -0.034681 0.000000 -0.051904
v -0.382683 0.000000 -0.923880
v -0.023889 0.000000 -0.057673
v -0.195090 0.000000 -0.980785
v -0.012178 0.000000 -0.061225
v 0.195090 1.500000 -0.980785
v 0.000000 1.500000 -1.000000
v 0.000000 1.500000 -0.062425
v 0.012179 1.500000 -0.061225
v 0.382683 1.500000 -0.923880
v 0.023889 1.500000 -0.057673
v 0.555570 1.500000 -0.831470
v 0.034681 1.500000 -0.051904
v 0.707107 1.500000 -0.707107
v 0.044141 1.500000 -0.044141
v 0.831470 1.500000 -0.555570
v 0.051904 1.500000 -0.034681
v 0.923880 1.500000 -0.382683
v 0.057673 1.500000 -0.023889
v 0.980785 1.500000 -0.195090
v 0.061225 1.500000 -0.012179
v 1.000000 1.500000 0.000000
v 0.062425 1.500000 -0.000000
v 0.980785 1.500000 0.195090
v 0.061225 1.500000 0.012178
v 0.923880 1.500000 0.382683
v 0.057673 1.500000 0.023889
v 0.831470 1.500000 0.555570
v 0.051904 1.500000 0.034681
v 0.707107 1.500000 0.707107
v 0.044141 1.500000 0.044141
v 0.555570 1.500000 0.831470
v 0.034681 1.500000 0.051904
v 0.382683 1.500000 0.923880
v 0.023889 1.500000 0.057673
v 0.195090 1.500000 0.980785
v 0.012179 1.500000 0.061225
v 0.000000 1.500000 1.000000
v 0.000000 1.500000 0.062425
v -0.195090 1.500000 0.980785
v -0.012178 1.500000 0.061225
v -0.382683 1.500000 0.923880
v -0.023889 1.500000 0.057673
v -0.555570 1.500000 0.831470
v -0.034681 1.500000 0.051904
v -0.707107 1.500000 0.707107
v -0.044141 1.500000 0.044141
v -0.831470 1.500000 0.555570
v -0.051904 1.500000 0.034681
v -0.923880 1.500000 0.382683
v -0.057673 1.500000 0.023889
v -0.980785 1.500000 0.195090
v -0.061225 1.500000 0.012178
v -1.000000 1.500000 0.000000
v -0.062425 1.500000 -0.000000
v -0.980785 1.500000 -0.195090
v -0.061225 1.500000 -0.012179
v -0.923880 1.500000 -0.382683
v -0.057673 1.500000 -0.023889
v -0.831470 1.500000 -0.555570
v -0.051904 1.500000 -0.034681
v -0.707107 1.500000 -0.707107
v -0.044141 1.500000 -0.044141
v -0.555570 1.500000 -0.831470
v -0.034681 1.500000 -0.051904
v -0.382683 1.500000 -0.923880
v -0.023889 1.500000 -0.057673
v -0.195090 1.500000 -0.980785
v -0.012178 1.500000 -0.061225
vn -0.0000 -1.0000 -0.0000
vn -0.0000 1.0000 -0.0000
vn 0.8819 -0.0000 -0.4714
vn 0.0980 -0.0000 0.9952
vn 0.2903 -0.0000 0.9569
vn -0.8819 -0.0000 0.4714
vn -0.9952 -0.0000 0.0980
vn -0.2903 -0.0000 -0.9569
vn 0.9952 -0.0000 -0.0980
vn 0.9569 -0.0000 -0.2903
vn -0.9569 -0.0000 0.2903
vn -0.9952 -0.0000 -0.0980
vn -0.0980 -0.0000 -0.9952
vn 0.9952 -0.0000 0.0980
vn -0.0980 -0.0000 0.9952
vn -0.9569 -0.0000 -0.2903
vn 0.0980 -0.0000 -0.9952
vn 0.9569 -0.0000 0.2903
vn -0.2903 -0.0000 0.9569
vn -0.8819 -0.0000 -0.4714
vn 0.2903 -0.0000 -0.9569
vn 0.8819 -0.0000 0.4714
vn -0.4714 -0.0000 0.8819
vn -0.7730 -0.0000 -0.6344
vn 0.4714 -0.0000 -0.8819
vn 0.7730 -0.0000 0.6344
vn -0.6344 -0.0000 0.7730
vn -0.6344 -0.0000 -0.7730
vn 0.6344 -0.0000 -0.7730
vn 0.6344 -0.0000 0.7730
vn -0.7730 -0.0000 0.6344
vn -0.4714 -0.0000 -0.8819
vn 0.7730 -0.0000 -0.6344
vn 0.4714 -0.0000 0.8819
vt 1.000000 0.000000
vt 0.968750 0.000000
vt 0.968750 1.000000
vt 1.000000 1.000000
vt 0.937500 0.000000
vt 0.937500 1.000000
vt 0.906250 0.000000
vt 0.906250 1.000000
vt 0.875000 0.000000
vt 0.875000 1.000000
vt 0.843750 0.000000
vt 0.843750 1.000000
vt 0.812500 0.000000
vt 0.812500 1.000000
vt 0.781250 0.000000
vt 0.781250 1.000000
vt 0.750000 0.000000
vt 0.750000 1.000000
vt 0.718750 0.000000
vt 0.718750 1.000000
vt 0.687500 0.000000
vt 0.687500 1.000000
vt 0.656250 0.000000
vt 0.656250 1.000000
vt 0.625000 0.000000
vt 0.625000 1.000000
vt 0.593750 0.000000
vt 0.593750 1.000000
vt 0.562500 0.000000
vt 0.562500 1.000000
vt 0.531250 0.000000
vt 0.531250 1.000000
vt 0.500000 0.000000
vt 0.500000 1.000000
vt 0.468750 0.000000
vt 0.468750 1.000000
vt 0.437500 0.000000
vt 0.437500 1.000000
vt 0.406250 0.000000
vt 0.406250 1.000000
vt 0.375000 0.000000
vt 0.375000 1.000000
vt 0.343750 0.000000
vt 0.343750 1.000000
vt 0.312500 0.000000
vt 0.312500 1.000000
vt 0.281250 0.000000
vt 0.281250 1.000000
vt 0.250000 0.000000
vt 0.250000 1.000000
vt 0.218750 0.000000
vt 0.218750 1.000000
vt 0.187500 0.000000
vt 0.187500 1.000000
vt 0.156250 0.000000
vt 0.156250 1.000000
vt 0.125000 0.000000
vt 0.125000 1.000000
vt 0.093750 0.000000
vt 0.093750 1.000000
vt 0.062500 0.000000
vt 0.062500 1.000000
vt 0.031250 0.000000
vt 0.031250 1.000000
vt 0.000000 0.000000
vt 0.000000 1.000000
s 0
f 1/1/1 3/2/1 4/3/1 2/4/1
f 3/2/1 5/5/1 6/6/1 4/3/1
f 5/5/1 7/7/1 8/8/1 6/6/1
f 7/7/1 9/9/1 10/10/1 8/8/1
f 9/9/1 11/11/1 12/12/1 10/10/1
f 11/11/1 13/13/1 14/14/1 12/12/1
f 13/13/1 15/15/1 16/16/1 14/14/1
f 15/15/1 17/17/1 18/18/1 16/16/1
f 17/17/1 19/19/1 20/20/1 18/18/1
f 19/19/1 21/21/1 22/22/1 20/20/1
f 21/21/1 23/23/1 24/24/1 22/22/1
f 23/23/1 25/25/1 26/26/1 24/24/1
f 25/25/1 27/27/1 28/28/1 26/26/1
f 27/27/1 29/29/1 30/30/1 28/28/1
f 29/29/1 31/31/1 32/32/1 30/30/1
f 31/31/1 33/33/1 34/34/1 32/32/1
f 33/33/1 35/35/1 36/36/1 34/34/1
f 35/35/1 37/37/1 38/38/1 36/36/1
f 37/37/1 39/39/1 40/40/1 38/38/1
f 39/39/1 41/41/1 42/42/1 40/40/1
f 41/41/1 43/43/1 44/44/1 42/42/1
f 43/43/1 45/45/1 46/46/1 44/44/1
f 45/45/1 47/47/1 48/48/1 46/46/1
f 47/47/1 49/49/1 50/50/1 48/48/1
f 49/49/1 51/51/1 52/52/1 50/50/1
f 51/51/1 53/53/1 54/54/1 52/52/1
f 53/53/1 55/55/1 56/56/1 54/54/1
f 55/55/1 57/57/1 58/58/1 56/56/1
f 57/57/1 59/59/1 60/60/1 58/58/1
f 59/59/1 61/61/1 62/62/1 60/60/1
f 61/61/1 63/63/1 64/64/1 62/62/1
f 63/63/1 1/65/1 2/66/1 64/64/1
f 66/1/2 67/4/2 68/3/2 65/2/2
f 65/2/2 68/3/2 70/6/2 69/5/2
f 69/5/2 70/6/2 72/8/2 71/7/2
f 71/7/2 72/8/2 74/10/2 73/9/2
f 73/9/2 74/10/2 76/12/2 75/11/2
f 75/11/2 76/12/2 78/14/2 77/13/2
f 77/13/2 78/14/2 80/16/2 79/15/2
f 79/15/2 80/16/2 82/18/2 81/17/2
f 81/17/2 82/18/2 84/20/2 83/19/2
f 83/19/2 84/20/2 86/22/2 85/21/2
f 85/21/2 86/22/2 88/24/2 87/23/2
f 87/23/2 88/24/2 90/26/2 89/25/2
f 89/25/2 90/26/2 92/28/2 91/27/2
f 91/27/2 92/28/2 94/30/2 93/29/2
f 93/29/2 94/30/2 96/32/2 95/31/2
f 95/31/2 96/32/2 98/34/2 97/33/2
f 97/33/2 98/34/2 100/36/2 99/35/2
f 99/35/2 100/36/2 102/38/2 101/37/2
f 101/37/2 102/38/2 104/40/2 103/39/2
f 103/39/2 104/40/2 106/42/2 105/41/2
f 105/41/2 106/42/2 108/44/2 107/43/2
f 107/43/2 108/44/2 110/46/2 109/45/2
f 109/45/2 110/46/2 112/48/2 111/47/2
f 111/47/2 112/48/2 114/50/2 113/49/2
f 113/49/2 114/50/2 116/52/2 115/51/2
f 115/51/2 116/52/2 118/54/2 117/53/2
f 117/53/2 118/54/2 120/56/2 119/55/2
f 119/55/2 120/56/2 122/58/2 121/57/2
f 121/57/2 122/58/2 124/60/2 123/59/2
f 123/59/2 124/60/2 126/62/2 125/61/2
f 125/61/2 126/62/2 128/64/2 127/63/2
f 127/63/2 128/64/2 67/66/2 66/65/2
f 13/13/3 11/11/3 75/11/3 77/13/3
f 64/64/4 2/66/4 67/66/4 128/64/4
f 31/31/5 29/29/5 93/29/5 95/31/5
f 12/12/6 14/14/6 78/14/6 76/12/6
f 49/49/7 47/47/7 111/47/7 113/49/7
f 30/30/8 32/32/8 96/32/8 94/30/8
f 48/48/9 50/50/9 114/50/9 112/48/9
f 15/15/10 13/13/10 77/13/10 79/15/10
f 33/33/4 31/31/4 95/31/4 97/33/4
f 14/14/11 16/16/11 80/16/11 78/14/11
f 51/51/12 49/49/12 113/49/12 115/51/12
f 32/32/13 34/34/13 98/34/13 96/32/13
f 50/50/14 52/52/14 116/52/14 114/50/14
f 17/17/9 15/15/9 79/15/9 81/17/9
f 35/35/15 33/33/15 97/33/15 99/35/15
f 16/16/7 18/18/7 82/18/7 80/16/7
f 53/53/16 51/51/16 115/51/16 117/53/16
f 34/34/17 36/36/17 100/36/17 98/34/17
f 52/52/18 54/54/18 118/54/18 116/52/18
f 19/19/14 17/17/14 81/17/14 83/19/14
f 37/37/19 35/35/19 99/35/19 101/37/19
f 18/18/12 20/20/12 84/20/12 82/18/12
f 3/2/17 1/1/17 66/1/17 65/2/17
f 55/55/20 53/53/20 117/53/20 119/55/20
f 36/36/21 38/38/21 102/38/21 100/36/21
f 54/54/22 56/56/22 120/56/22 118/54/22
f 21/21/18 19/19/18 83/19/18 85/21/18
f 2/4/15 4/3/15 68/3/15 67/4/15
f 39/39/23 37/37/23 101/37/23 103/39/23
f 20/20/16 22/22/16 86/22/16 84/20/16
f 57/57/24 55/55/24 119/55/24 121/57/24
f 38/38/25 40/40/25 104/40/25 102/38/25
f 5/5/21 3/2/21 65/2/21 69/5/21
f 56/56/26 58/58/26 122/58/26 120/56/26
f 23/23/22 21/21/22 85/21/22 87/23/22
f 4/3/19 6/6/19 70/6/19 68/3/19
f 41/41/27 39/39/27 103/39/27 105/41/27
f 22/22/20 24/24/20 88/24/20 86/22/20
f 59/59/28 57/57/28 121/57/28 123/59/28
f 40/40/29 42/42/29 106/42/29 104/40/29
f 7/7/25 5/5/25 69/5/25 71/7/25
f 58/58/30 60/60/30 124/60/30 122/58/30
f 25/25/26 23/23/26 87/23/26 89/25/26
f 6/6/23 8/8/23 72/8/23 70/6/23
f 43/43/31 41/41/31 105/41/31 107/43/31
f 24/24/24 26/26/24 90/26/24 88/24/24
f 61/61/32 59/59/32 123/59/32 125/61/32
f 42/42/33 44/44/33 108/44/33 106/42/33
f 9/9/29 7/7/29 71/7/29 73/9/29
f 60/60/34 62/62/34 126/62/34 124/60/34
f 27/27/30 25/25/30 89/25/30 91/27/30
f 8/8/27 10/10/27 74/10/27 72/8/27
f 45/45/6 43/43/6 107/43/6 109/45/6
f 26/26/28 28/28/28 92/28/28 90/26/28
f 63/63/8 61/61/8 125/61/8 127/63/8
f 44/44/3 46/46/3 110/46/3 108/44/3
f 11/11/33 9/9/33 73/9/33 75/11/33
f 62/62/5 64/64/5 128/64/5 126/62/5
f 29/29/34 27/27/34 91/27/34 93/29/34
f 10/10/31 12/12/31 76/12/31 74/10/31
f 47/47/11 45/45/11 109/45/11 111/47/11
f 28/28/32 30/30/32 94/30/32 92/28/32
f 1/65/13 63/63/13 127/63/13 66/65/13
f 46/46/10 48/48/10 112/48/10 110/46/10
